# Blender 3.3.1
# www.blender.org
mtllib Ball 01.mtl
o Golf_ball_02
v 0.084777 0.215223 -5.184778
v 0.042388 0.200590 -5.199410
v 0.000000 0.196170 -5.203831
v -0.042388 0.200590 -5.199410
v 0.099410 0.257612 -5.199410
v 0.049705 0.250295 -5.228920
v 0.000000 0.248085 -5.237355
v -0.049705 0.250295 -5.228920
v 0.103830 0.300000 -5.203831
v 0.051915 0.300000 -5.237355
v 0.000000 0.300000 -5.246839
v -0.051915 0.300000 -5.237355
v 0.099410 0.342388 -5.199410
v 0.049705 0.349705 -5.228920
v 0.000000 0.351915 -5.237355
v -0.049705 0.349705 -5.228920
v -0.084777 0.215223 -5.184778
v -0.099410 0.200590 -5.142389
v -0.103830 0.196170 -5.100000
v -0.099410 0.200590 -5.057612
v -0.099410 0.257612 -5.199410
v -0.128920 0.250295 -5.149705
v -0.137354 0.248085 -5.100000
v -0.128920 0.250295 -5.050296
v -0.103830 0.300000 -5.203831
v -0.137354 0.300000 -5.151916
v -0.146838 0.300000 -5.100000
v -0.137354 0.300000 -5.048085
v -0.099410 0.342388 -5.199410
v -0.128920 0.349705 -5.149705
v -0.137354 0.351915 -5.100000
v -0.128920 0.349705 -5.050296
v -0.084777 0.215223 -5.015224
v -0.042388 0.200590 -5.000591
v 0.000000 0.196170 -4.996171
v 0.042388 0.200590 -5.000591
v -0.099410 0.257612 -5.000591
v -0.049705 0.250295 -4.971081
v 0.000000 0.248085 -4.962646
v 0.049705 0.250295 -4.971081
v -0.103830 0.300000 -4.996171
v -0.051915 0.300000 -4.962646
v 0.000000 0.300000 -4.953163
v 0.051915 0.300000 -4.962646
v -0.099410 0.342388 -5.000591
v -0.049705 0.349705 -4.971081
v 0.000000 0.351915 -4.962646
v 0.049705 0.349705 -4.971081
v 0.084777 0.215223 -5.015224
v 0.099410 0.200590 -5.057612
v 0.103830 0.196170 -5.100000
v 0.099410 0.200590 -5.142389
v 0.099410 0.257612 -5.000591
v 0.128920 0.250295 -5.050296
v 0.137354 0.248085 -5.100000
v 0.128920 0.250295 -5.149705
v 0.103830 0.300000 -4.996171
v 0.137354 0.300000 -5.048085
v 0.146838 0.300000 -5.100000
v 0.137354 0.300000 -5.151916
v 0.099410 0.342388 -5.000591
v 0.128920 0.349705 -5.050296
v 0.137354 0.351915 -5.100000
v 0.128920 0.349705 -5.149705
v 0.049705 0.171080 -5.050296
v 0.000000 0.162646 -5.048085
v -0.049705 0.171080 -5.050296
v 0.051915 0.162646 -5.100000
v 0.000000 0.153162 -5.100000
v -0.051915 0.162646 -5.100000
v 0.049705 0.171080 -5.149705
v 0.000000 0.162646 -5.151916
v -0.049705 0.171080 -5.149705
v 0.084777 0.384777 -5.184778
v 0.042388 0.399410 -5.199410
v 0.000000 0.403830 -5.203831
v -0.042388 0.399410 -5.199410
v -0.084777 0.384777 -5.184778
v 0.099410 0.399410 -5.142389
v 0.049705 0.428920 -5.149705
v 0.000000 0.437354 -5.151916
v -0.049705 0.428920 -5.149705
v -0.099410 0.399410 -5.142389
v 0.103830 0.403830 -5.100000
v 0.051915 0.437354 -5.100000
v 0.000000 0.446838 -5.100000
v -0.051915 0.437354 -5.100000
v -0.103830 0.403830 -5.100000
v 0.099410 0.399410 -5.057612
v 0.049705 0.428920 -5.050296
v 0.000000 0.437354 -5.048085
v -0.049705 0.428920 -5.050296
v -0.099410 0.399410 -5.057612
v 0.084777 0.384777 -5.015224
v 0.042388 0.399410 -5.000591
v 0.000000 0.403830 -4.996171
v -0.042388 0.399410 -5.000591
v -0.084777 0.384777 -5.015224
vn 0.4701 -0.4701 -0.7470
vn 0.1546 -0.5288 -0.8346
vn -0.1546 -0.5288 -0.8346
vn -0.4701 -0.4701 -0.7470
vn 0.5288 -0.1546 -0.8346
vn 0.1747 -0.1747 -0.9690
vn -0.1747 -0.1747 -0.9690
vn -0.5288 -0.1546 -0.8346
vn 0.5288 0.1546 -0.8346
vn 0.1747 0.1747 -0.9690
vn -0.1747 0.1747 -0.9690
vn -0.5288 0.1546 -0.8346
vn 0.4701 0.4701 -0.7470
vn 0.1546 0.5288 -0.8346
vn -0.1546 0.5288 -0.8346
vn -0.4701 0.4701 -0.7470
vn -0.7470 -0.4701 -0.4701
vn -0.8346 -0.5288 -0.1546
vn -0.8346 -0.5288 0.1546
vn -0.7470 -0.4701 0.4701
vn -0.8346 -0.1546 -0.5288
vn -0.9690 -0.1747 -0.1747
vn -0.9690 -0.1747 0.1747
vn -0.8346 -0.1546 0.5288
vn -0.8346 0.1546 -0.5288
vn -0.9690 0.1747 -0.1747
vn -0.9690 0.1747 0.1747
vn -0.8346 0.1546 0.5288
vn -0.7470 0.4701 -0.4701
vn -0.8346 0.5288 -0.1546
vn -0.8346 0.5288 0.1546
vn -0.7470 0.4701 0.4701
vn -0.4701 -0.4701 0.7470
vn -0.1546 -0.5288 0.8346
vn 0.1546 -0.5288 0.8346
vn 0.4701 -0.4701 0.7470
vn -0.5288 -0.1546 0.8346
vn -0.1747 -0.1747 0.9690
vn 0.1747 -0.1747 0.9690
vn 0.5288 -0.1546 0.8346
vn -0.5288 0.1546 0.8346
vn -0.1747 0.1747 0.9690
vn 0.1747 0.1747 0.9690
vn 0.5288 0.1546 0.8346
vn -0.4701 0.4701 0.7470
vn -0.1546 0.5288 0.8346
vn 0.1546 0.5288 0.8346
vn 0.4701 0.4701 0.7470
vn 0.7470 -0.4701 0.4701
vn 0.8346 -0.5288 0.1546
vn 0.8346 -0.5288 -0.1546
vn 0.7470 -0.4701 -0.4701
vn 0.8346 -0.1546 0.5288
vn 0.9690 -0.1747 0.1747
vn 0.9690 -0.1747 -0.1747
vn 0.8346 -0.1546 -0.5288
vn 0.8346 0.1546 0.5288
vn 0.9690 0.1747 0.1747
vn 0.9690 0.1747 -0.1747
vn 0.8346 0.1546 -0.5288
vn 0.7470 0.4701 0.4701
vn 0.8346 0.5288 0.1546
vn 0.8346 0.5288 -0.1546
vn 0.7470 0.4701 -0.4701
vn 0.4701 -0.7470 0.4701
vn 0.1546 -0.8346 0.5288
vn -0.1546 -0.8346 0.5288
vn -0.4701 -0.7470 0.4701
vn 0.5288 -0.8346 0.1546
vn 0.1747 -0.9690 0.1747
vn -0.1747 -0.9690 0.1747
vn -0.5288 -0.8346 0.1546
vn 0.5288 -0.8346 -0.1546
vn 0.1747 -0.9690 -0.1747
vn -0.1747 -0.9690 -0.1747
vn -0.5288 -0.8346 -0.1546
vn 0.4701 -0.7470 -0.4701
vn 0.1546 -0.8346 -0.5288
vn -0.1546 -0.8346 -0.5288
vn -0.4701 -0.7470 -0.4701
vn 0.4701 0.7470 -0.4701
vn 0.1546 0.8346 -0.5288
vn -0.1546 0.8346 -0.5288
vn -0.4701 0.7470 -0.4701
vn 0.5288 0.8346 -0.1546
vn 0.1747 0.9690 -0.1747
vn -0.1747 0.9690 -0.1747
vn -0.5288 0.8346 -0.1546
vn 0.5288 0.8346 0.1546
vn 0.1747 0.9690 0.1747
vn -0.1747 0.9690 0.1747
vn -0.5288 0.8346 0.1546
vn 0.4701 0.7470 0.4701
vn 0.1546 0.8346 0.5288
vn -0.1546 0.8346 0.5288
vn -0.4701 0.7470 0.4701
vt 0.216098 0.216122
vt 0.244874 0.127391
vt 0.278083 0.038697
vt 0.721849 0.038697
vt 0.755057 0.127391
vt 0.275535 0.275565
vt 0.338734 0.193685
vt 0.409122 0.107958
vt 0.590809 0.107958
vt 0.661197 0.193685
vt 0.324414 0.324447
vt 0.397674 0.262224
vt 0.499966 0.204352
vt 0.602257 0.262224
vt 0.365820 0.365855
vt 0.432823 0.330326
vt 0.499966 0.317953
vt 0.567109 0.330326
vt 0.783833 0.216122
vt 0.872569 0.244890
vt 0.961268 0.721912
vt 0.961268 0.278088
vt 0.872569 0.755110
vt 0.724396 0.275565
vt 0.806283 0.338758
vt 0.892021 0.409140
vt 0.892021 0.590860
vt 0.806283 0.661242
vt 0.675517 0.324447
vt 0.737746 0.397705
vt 0.795632 0.500000
vt 0.737746 0.602295
vt 0.634111 0.365855
vt 0.669643 0.432856
vt 0.682017 0.500000
vt 0.669643 0.567144
vt 0.783833 0.783878
vt 0.755057 0.872609
vt 0.278083 0.961303
vt 0.721849 0.961303
vt 0.244874 0.872609
vt 0.724396 0.724435
vt 0.661197 0.806315
vt 0.590809 0.892042
vt 0.409123 0.892042
vt 0.338734 0.806315
vt 0.675517 0.675553
vt 0.602257 0.737776
vt 0.499966 0.795648
vt 0.397674 0.737776
vt 0.634111 0.634145
vt 0.567109 0.669674
vt 0.499966 0.682047
vt 0.432823 0.669674
vt 0.216098 0.783878
vt 0.127363 0.755110
vt 0.038663 0.721912
vt 0.038663 0.278088
vt 0.127363 0.244890
vt 0.275535 0.724435
vt 0.193648 0.661242
vt 0.107910 0.590860
vt 0.107910 0.409140
vt 0.193648 0.338758
vt 0.324414 0.675553
vt 0.262185 0.602295
vt 0.204300 0.500000
vt 0.262185 0.397705
vt 0.365820 0.634145
vt 0.330289 0.567144
vt 0.317914 0.500000
vt 0.330289 0.432856
vt 0.121508 0.878478
vt 0.132474 0.996101
vt 0.867457 0.996101
vt 0.878424 0.878478
vt 0.003883 0.867525
vt 0.003883 0.132475
vt 0.000100 0.999900
vt 0.999831 0.999900
vt 0.000100 0.000100
vt 0.999831 0.000100
vt 0.996049 0.867525
vt 0.996048 0.132475
vt 0.121507 0.121522
vt 0.132474 0.003899
vt 0.867457 0.003899
vt 0.878424 0.121522
vt 0.405353 0.405387
vt 0.455280 0.395356
vt 0.499966 0.393125
vt 0.544651 0.395356
vt 0.594579 0.405387
vt 0.395320 0.455315
vt 0.453214 0.453249
vt 0.499966 0.452300
vt 0.546717 0.453249
vt 0.604611 0.455315
vt 0.393089 0.500000
vt 0.452265 0.500000
vt 0.499966 0.500000
vt 0.547667 0.500000
vt 0.606842 0.500000
vt 0.395320 0.544685
vt 0.453214 0.546751
vt 0.499966 0.547700
vt 0.546717 0.546751
vt 0.604611 0.544685
vt 0.405353 0.594612
vt 0.455280 0.604644
vt 0.499966 0.606875
vt 0.544651 0.604644
vt 0.594579 0.594612
s 0
usemtl Golf_ball_Material_Basic
f 1/1/1 2/2/1 6/7/1 5/6/1
f 2/2/2 3/3/2 7/8/2 6/7/2
f 3/4/3 4/5/3 8/10/3 7/9/3
f 4/5/4 17/19/4 21/24/4 8/10/4
f 5/6/5 6/7/5 10/12/5 9/11/5
f 6/7/6 7/8/6 11/13/6 10/12/6
f 7/9/7 8/10/7 12/14/7 11/13/7
f 8/10/8 21/24/8 25/29/8 12/14/8
f 9/11/9 10/12/9 14/16/9 13/15/9
f 10/12/10 11/13/10 15/17/10 14/16/10
f 11/13/11 12/14/11 16/18/11 15/17/11
f 12/14/12 25/29/12 29/33/12 16/18/12
f 13/15/13 14/16/13 75/90/13 74/89/13
f 14/16/14 15/17/14 76/91/14 75/90/14
f 15/17/15 16/18/15 77/92/15 76/91/15
f 16/18/16 29/33/16 78/93/16 77/92/16
f 17/19/17 18/20/17 22/25/17 21/24/17
f 18/20/18 19/22/18 23/26/18 22/25/18
f 19/21/19 20/23/19 24/28/19 23/27/19
f 20/23/20 33/37/20 37/42/20 24/28/20
f 21/24/21 22/25/21 26/30/21 25/29/21
f 22/25/22 23/26/22 27/31/22 26/30/22
f 23/27/23 24/28/23 28/32/23 27/31/23
f 24/28/24 37/42/24 41/47/24 28/32/24
f 25/29/25 26/30/25 30/34/25 29/33/25
f 26/30/26 27/31/26 31/35/26 30/34/26
f 27/31/27 28/32/27 32/36/27 31/35/27
f 28/32/28 41/47/28 45/51/28 32/36/28
f 29/33/29 30/34/29 83/98/29 78/93/29
f 30/34/30 31/35/30 88/103/30 83/98/30
f 31/35/31 32/36/31 93/108/31 88/103/31
f 32/36/32 45/51/32 98/113/32 93/108/32
f 33/37/33 34/38/33 38/43/33 37/42/33
f 34/38/34 35/40/34 39/44/34 38/43/34
f 35/39/35 36/41/35 40/46/35 39/45/35
f 36/41/36 49/55/36 53/60/36 40/46/36
f 37/42/37 38/43/37 42/48/37 41/47/37
f 38/43/38 39/44/38 43/49/38 42/48/38
f 39/45/39 40/46/39 44/50/39 43/49/39
f 40/46/40 53/60/40 57/65/40 44/50/40
f 41/47/41 42/48/41 46/52/41 45/51/41
f 42/48/42 43/49/42 47/53/42 46/52/42
f 43/49/43 44/50/43 48/54/43 47/53/43
f 44/50/44 57/65/44 61/69/44 48/54/44
f 45/51/45 46/52/45 97/112/45 98/113/45
f 46/52/46 47/53/46 96/111/46 97/112/46
f 47/53/47 48/54/47 95/110/47 96/111/47
f 48/54/48 61/69/48 94/109/48 95/110/48
f 49/55/49 50/56/49 54/61/49 53/60/49
f 50/56/50 51/57/50 55/62/50 54/61/50
f 51/58/51 52/59/51 56/64/51 55/63/51
f 52/59/52 1/1/52 5/6/52 56/64/52
f 53/60/53 54/61/53 58/66/53 57/65/53
f 54/61/54 55/62/54 59/67/54 58/66/54
f 55/63/55 56/64/55 60/68/55 59/67/55
f 56/64/56 5/6/56 9/11/56 60/68/56
f 57/65/57 58/66/57 62/70/57 61/69/57
f 58/66/58 59/67/58 63/71/58 62/70/58
f 59/67/59 60/68/59 64/72/59 63/71/59
f 60/68/60 9/11/60 13/15/60 64/72/60
f 61/69/61 62/70/61 89/104/61 94/109/61
f 62/70/62 63/71/62 84/99/62 89/104/62
f 63/71/63 64/72/63 79/94/63 84/99/63
f 64/72/64 13/15/64 74/89/64 79/94/64
f 49/55/65 36/41/65 65/73/65 50/56/65
f 36/41/66 35/39/66 66/74/66 65/73/66
f 35/40/67 34/38/67 67/76/67 66/75/67
f 34/38/68 33/37/68 20/23/68 67/76/68
f 50/56/69 65/73/69 68/77/69 51/57/69
f 65/73/70 66/74/70 69/79/70 68/77/70
f 66/75/71 67/76/71 70/83/71 69/80/71
f 67/76/72 20/23/72 19/21/72 70/83/72
f 51/58/73 68/78/73 71/85/73 52/59/73
f 68/78/74 69/81/74 72/86/74 71/85/74
f 69/82/75 70/84/75 73/88/75 72/87/75
f 70/84/76 19/22/76 18/20/76 73/88/76
f 52/59/77 71/85/77 2/2/77 1/1/77
f 71/85/78 72/86/78 3/3/78 2/2/78
f 72/87/79 73/88/79 4/5/79 3/4/79
f 73/88/80 18/20/80 17/19/80 4/5/80
f 74/89/81 75/90/81 80/95/81 79/94/81
f 75/90/82 76/91/82 81/96/82 80/95/82
f 76/91/83 77/92/83 82/97/83 81/96/83
f 77/92/84 78/93/84 83/98/84 82/97/84
f 79/94/85 80/95/85 85/100/85 84/99/85
f 80/95/86 81/96/86 86/101/86 85/100/86
f 81/96/87 82/97/87 87/102/87 86/101/87
f 82/97/88 83/98/88 88/103/88 87/102/88
f 84/99/89 85/100/89 90/105/89 89/104/89
f 85/100/90 86/101/90 91/106/90 90/105/90
f 86/101/91 87/102/91 92/107/91 91/106/91
f 87/102/92 88/103/92 93/108/92 92/107/92
f 89/104/93 90/105/93 95/110/93 94/109/93
f 90/105/94 91/106/94 96/111/94 95/110/94
f 91/106/95 92/107/95 97/112/95 96/111/95
f 92/107/96 93/108/96 98/113/96 97/112/96
