# Blender 3.3.1
# www.blender.org
mtllib Golf Grass Hole Test 01.mtl
o Hole_Tile_01
v -0.000000 -1.017335 -5.388355
v 0.203897 -1.017335 -5.303897
v 0.288355 -1.017335 -5.100000
v 0.203897 -1.017335 -4.896102
v -0.000000 -1.017335 -4.811646
v -0.203897 -1.017335 -4.896102
v -0.288355 -1.017335 -5.100000
v -0.203897 -1.017335 -5.303897
v -0.000000 -1.250082 -5.414017
v 1.000000 0.100000 -6.100000
v 1.000000 -0.100000 -6.100000
v 0.222044 -1.250082 -5.322043
v 1.000000 0.100000 -4.100000
v 1.000000 -0.100000 -4.100000
v 0.314017 -1.250082 -5.100000
v -1.000000 0.100000 -6.100000
v -1.000000 -0.100000 -6.100000
v 0.222044 -1.250082 -4.877956
v -1.000000 0.100000 -4.100000
v -1.000000 -0.100000 -4.100000
v -0.000000 -1.250082 -4.785983
v -0.222044 -1.250082 -4.877956
v -0.314017 -1.250082 -5.100000
v -0.222044 -1.250082 -5.322043
v -0.000000 -0.100000 -5.414017
v 0.222044 -0.100000 -5.322043
v 0.314017 -0.100000 -5.100000
v 0.222044 -0.100000 -4.877956
v -0.000000 -0.100000 -4.785983
v -0.222044 -0.100000 -4.877956
v -0.314017 -0.100000 -5.100000
v -0.222044 -0.100000 -5.322043
v -0.288355 0.100000 -5.100000
v -0.203897 0.100000 -4.896102
v 0.288355 0.100000 -5.100000
v -0.203897 0.100000 -5.303897
v -0.000000 0.100000 -5.388355
v -0.000000 0.100000 -4.811646
v 0.203897 0.100000 -4.896102
v 0.203897 0.100000 -5.303897
vn -0.3827 -0.0000 0.9239
vn -0.9239 -0.0000 0.3827
vn -0.9239 -0.0000 -0.3827
vn -0.3827 -0.0000 -0.9239
vn 0.3827 -0.0000 -0.9239
vn 0.9239 -0.0000 -0.3827
vn 0.9239 -0.0000 0.3827
vn 0.3827 -0.0000 0.9239
vn -0.0000 1.0000 -0.0000
vn -0.0000 -1.0000 -0.0000
vn -0.0000 -0.0000 1.0000
vn -1.0000 -0.0000 -0.0000
vn 1.0000 -0.0000 -0.0000
vn -0.0000 -0.0000 -1.0000
vt 1.000000 0.500000
vt 0.000000 0.500000
vt 0.750000 0.490000
vt 0.875000 0.500000
vt 0.919706 0.419706
vt 0.750000 0.500000
vt 0.990000 0.250000
vt 0.625000 0.500000
vt 0.919706 0.080294
vt 0.500000 0.500000
vt 0.750000 0.010000
vt 0.375000 0.500000
vt 0.580294 0.080294
vt 0.250000 0.500000
vt 0.510000 0.250000
vt 0.125000 0.500000
vt 0.580294 0.419706
vt 1.000000 0.500000
vt 0.000000 0.500000
vt 0.750000 0.490000
vt 0.999800 0.000200
vt 0.333133 0.999800
vt 0.999974 0.000599
vt 0.333533 0.333134
vt 0.666866 0.000200
vt 0.000200 0.999800
vt 0.875000 0.500000
vt 0.919706 0.419706
vt 0.666467 0.333533
vt 0.999800 0.333134
vt 0.001173 0.000599
vt 0.333533 0.333533
vt 0.333533 0.000200
vt 0.666866 0.333133
vt 0.750000 0.500000
vt 0.990000 0.250000
vt 0.000200 0.333134
vt 0.333133 0.666866
vt 0.999974 0.999401
vt 0.000200 0.000200
vt 0.666467 0.333134
vt 0.000200 0.666866
vt 0.625000 0.500000
vt 0.919706 0.080294
vt 0.666467 0.666467
vt 0.333134 0.333134
vt 0.001173 0.999401
vt 0.333533 0.666467
vt 0.333134 0.000200
vt 0.666467 0.000200
vt 0.500000 0.500000
vt 0.750000 0.010000
vt 0.375000 0.500000
vt 0.580294 0.080294
vt 0.250000 0.500000
vt 0.510000 0.250000
vt 0.125000 0.500000
vt 0.580294 0.419706
vt 1.000000 0.942283
vt 0.000000 0.942284
vt 0.500000 0.218940
vt 0.875000 0.942284
vt 0.463037 0.203630
vt 0.750000 0.942284
vt 0.447727 0.166667
vt 0.625000 0.942284
vt 0.463037 0.129704
vt 0.500000 0.942284
vt 0.500000 0.114393
vt 0.375000 0.942284
vt 0.536963 0.129704
vt 0.250000 0.942284
vt 0.552273 0.166667
vt 0.125000 0.942284
vt 0.536963 0.203630
vt 0.250000 0.967931
vt 0.500574 0.644004
vt 0.375000 0.967931
vt 0.398747 0.601826
vt 0.750000 0.967931
vt 0.500574 0.355996
vt 0.125000 0.967931
vt 0.602400 0.601826
vt 1.000000 0.967931
vt 0.000000 0.967931
vt 0.644578 0.500000
vt 0.500000 0.967931
vt 0.356569 0.500000
vt 0.625000 0.967931
vt 0.398747 0.398174
vt 0.875000 0.967931
vt 0.602400 0.398174
s 0
usemtl Hole.001
f 1/1/1 2/4/1 40/91/1 37/84/1
f 2/4/2 3/6/2 35/80/2 40/91/2
f 3/6/3 4/8/3 39/89/3 35/80/3
f 4/8/4 5/10/4 38/87/4 39/89/4
f 5/10/5 6/12/5 34/78/5 38/87/5
f 6/12/6 7/14/6 33/76/6 34/78/6
f 7/14/7 8/16/7 36/82/7 33/76/7
f 8/16/8 1/2/8 37/85/8 36/82/8
f 1/3/9 8/17/9 7/15/9 6/13/9 5/11/9 4/9/9 3/7/9 2/5/9
f 12/27/5 9/18/5 25/59/5 26/62/5
f 27/64/6 15/35/6 12/27/6 26/62/6
f 28/66/7 18/43/7 15/35/7 27/64/7
f 29/68/8 21/51/8 18/43/8 28/66/8
f 30/70/1 22/53/1 21/51/1 29/68/1
f 23/55/2 22/53/2 30/70/2 31/72/2
f 24/57/3 23/55/3 31/72/3 32/74/3
f 9/19/4 24/57/4 32/74/4 25/60/4
f 24/58/10 9/20/10 12/28/10 15/36/10 18/44/10 21/52/10 22/54/10 23/56/10
usemtl Material
f 10/23/9 16/39/9 33/77/9 36/83/9 37/86/9 40/92/9 35/81/9
f 14/32/11 13/29/11 19/45/11 20/48/11
f 20/49/12 19/46/12 16/37/12 17/40/12
f 30/71/10 20/50/10 17/41/10 32/75/10 31/73/10
f 32/75/10 17/41/10 11/24/10 14/33/10 20/50/10 30/71/10 29/69/10 28/67/10 27/65/10 26/63/10 25/61/10
f 11/25/13 10/21/13 13/30/13 14/34/13
f 17/42/14 16/38/14 10/22/14 11/26/14
f 35/81/9 39/90/9 38/88/9 34/79/9 33/77/9 16/39/9 19/47/9 13/31/9 10/23/9
