# Blender 3.3.1
# www.blender.org
mtllib Circle Test 01.mtl
o Circle
v -6.000000 -0.147273 -3.373330
v -6.000000 -0.134272 -3.386586
v -6.000000 0.147273 -3.373330
v -6.000000 0.134272 -3.386586
v -5.742327 -0.147273 -3.322076
v -5.737255 -0.134272 -3.334323
v -5.742327 0.147273 -3.322076
v -5.737255 0.134272 -3.334323
v -5.523884 -0.147273 -3.176117
v -5.514511 -0.134272 -3.185490
v -5.523884 0.147273 -3.176117
v -5.514511 0.134272 -3.185490
v -5.377924 -0.147273 -2.957672
v -5.365677 -0.134272 -2.962745
v -5.377924 0.147273 -2.957672
v -5.365677 0.134272 -2.962745
v -5.326670 -0.147273 -2.700000
v -5.313414 -0.134272 -2.700000
v -5.326670 0.147273 -2.700000
v -5.313414 0.134272 -2.700000
v -5.377924 -0.147273 -2.442328
v -5.365677 -0.134272 -2.437255
v -5.377924 0.147273 -2.442328
v -5.365677 0.134272 -2.437255
v -5.523884 -0.147273 -2.223883
v -5.514511 -0.134272 -2.214510
v -5.523884 0.147273 -2.223883
v -5.514511 0.134272 -2.214510
v -5.742327 -0.147273 -2.077924
v -5.737255 -0.134272 -2.065677
v -5.742327 0.147273 -2.077924
v -5.737255 0.134272 -2.065677
v -6.000000 -0.147273 -2.026670
v -6.000000 -0.134272 -2.013414
v -6.000000 0.147273 -2.026670
v -6.000000 0.134272 -2.013414
v -6.257673 -0.147273 -2.077924
v -6.262745 -0.134272 -2.065677
v -6.257673 0.147273 -2.077924
v -6.262745 0.134272 -2.065677
v -6.476116 -0.147273 -2.223883
v -6.485489 -0.134272 -2.214510
v -6.476116 0.147273 -2.223883
v -6.485489 0.134272 -2.214510
v -6.622076 -0.147273 -2.442328
v -6.634323 -0.134272 -2.437255
v -6.622076 0.147273 -2.442328
v -6.634323 0.134272 -2.437255
v -6.673330 -0.147273 -2.700000
v -6.686585 -0.134272 -2.700000
v -6.673330 0.147273 -2.700000
v -6.686585 0.134272 -2.700000
v -6.622076 -0.147273 -2.957672
v -6.634323 -0.134272 -2.962745
v -6.622076 0.147273 -2.957672
v -6.634323 0.134272 -2.962745
v -6.476116 -0.147273 -3.176117
v -6.485489 -0.134272 -3.185490
v -6.476116 0.147273 -3.176117
v -6.485489 0.134272 -3.185490
v -6.257673 -0.147273 -3.322076
v -6.262745 -0.134272 -3.334323
v -6.257673 0.147273 -3.322076
v -6.262745 0.134272 -3.334323
vn -0.1951 -0.0000 -0.9808
vn 0.8315 -0.0000 -0.5556
vn 0.9808 -0.0000 -0.1951
vn 0.9808 -0.0000 0.1951
vn 0.8315 -0.0000 0.5556
vn 0.5556 -0.0000 0.8315
vn 0.1951 -0.0000 0.9808
vn -0.1951 -0.0000 0.9808
vn -0.5556 -0.0000 0.8315
vn -0.8315 -0.0000 0.5556
vn -0.9808 -0.0000 0.1951
vn -0.9808 -0.0000 -0.1951
vn -0.8315 -0.0000 -0.5556
vn -0.5556 -0.0000 -0.8315
vn 0.5556 -0.0000 -0.8315
vn -0.0000 1.0000 -0.0000
vn 0.1951 -0.0000 -0.9808
vn 0.1379 -0.7071 -0.6935
vn 0.1379 0.7071 -0.6935
vn 0.3928 -0.7071 -0.5879
vn 0.3928 0.7071 -0.5879
vn 0.5879 -0.7071 -0.3928
vn 0.5879 0.7071 -0.3928
vn 0.6935 -0.7071 -0.1379
vn 0.6935 0.7071 -0.1379
vn 0.6935 -0.7071 0.1379
vn 0.6935 0.7071 0.1379
vn 0.5879 -0.7071 0.3928
vn 0.5879 0.7071 0.3928
vn 0.3928 -0.7071 0.5879
vn 0.3928 0.7071 0.5879
vn 0.1379 -0.7071 0.6935
vn 0.1379 0.7071 0.6935
vn -0.1379 -0.7071 0.6935
vn -0.1379 0.7071 0.6935
vn -0.3928 -0.7071 0.5879
vn -0.3928 0.7071 0.5879
vn -0.5879 -0.7071 0.3928
vn -0.5879 0.7071 0.3928
vn -0.6935 -0.7071 0.1379
vn -0.6935 0.7071 0.1379
vn -0.6935 -0.7071 -0.1379
vn -0.6935 0.7071 -0.1379
vn -0.5879 -0.7071 -0.3928
vn -0.5879 0.7071 -0.3928
vn -0.3928 -0.7071 -0.5879
vn -0.3928 0.7071 -0.5879
vn -0.1379 -0.7071 -0.6935
vn -0.1379 0.7071 -0.6935
vn -0.0000 -1.0000 -0.0000
vt 0.908017 0.485895
vt 0.972284 0.612518
vt 0.715216 0.612518
vt 0.908017 0.487087
vt 0.779483 0.485895
vt 0.972284 0.495331
vt 0.715216 0.495331
vt 0.779483 0.487087
vt 0.931171 0.481290
vt 0.731283 0.612518
vt 0.931627 0.482390
vt 0.802637 0.481290
vt 0.731283 0.495331
vt 0.803093 0.482390
vt 0.950801 0.468174
vt 0.747349 0.612518
vt 0.951643 0.469016
vt 0.822267 0.468174
vt 0.747349 0.495331
vt 0.823109 0.469016
vt 0.963917 0.448545
vt 0.763416 0.612518
vt 0.965017 0.449000
vt 0.835383 0.448545
vt 0.763416 0.495331
vt 0.836483 0.449000
vt 0.968522 0.425390
vt 0.779483 0.612518
vt 0.969713 0.425390
vt 0.839988 0.425390
vt 0.779483 0.495331
vt 0.841179 0.425390
vt 0.963917 0.402236
vt 0.795550 0.612518
vt 0.965017 0.401780
vt 0.835383 0.402236
vt 0.795550 0.495331
vt 0.836483 0.401780
vt 0.950801 0.382607
vt 0.811616 0.612518
vt 0.951643 0.381764
vt 0.822267 0.382607
vt 0.811616 0.495331
vt 0.823109 0.381764
vt 0.931171 0.369491
vt 0.827683 0.612518
vt 0.931627 0.368390
vt 0.802637 0.369491
vt 0.827683 0.495331
vt 0.803093 0.368390
vt 0.908017 0.364885
vt 0.843750 0.612518
vt 0.908017 0.363694
vt 0.779483 0.364885
vt 0.843750 0.495331
vt 0.779483 0.363694
vt 0.884863 0.369491
vt 0.859817 0.612518
vt 0.884407 0.368390
vt 0.756329 0.369491
vt 0.859817 0.495331
vt 0.755873 0.368390
vt 0.865233 0.382607
vt 0.875884 0.612518
vt 0.864391 0.381764
vt 0.736699 0.382607
vt 0.875884 0.495331
vt 0.735857 0.381764
vt 0.852117 0.402236
vt 0.891950 0.612518
vt 0.851017 0.401780
vt 0.723583 0.402236
vt 0.891950 0.495331
vt 0.722483 0.401780
vt 0.847512 0.425390
vt 0.908017 0.612518
vt 0.846321 0.425390
vt 0.718978 0.425390
vt 0.908017 0.495331
vt 0.717787 0.425390
vt 0.852117 0.448545
vt 0.924084 0.612518
vt 0.851017 0.449000
vt 0.723583 0.448545
vt 0.924084 0.495331
vt 0.722483 0.449000
vt 0.865233 0.468174
vt 0.940151 0.612518
vt 0.864391 0.469016
vt 0.736699 0.468174
vt 0.940151 0.495331
vt 0.735857 0.469016
vt 0.884863 0.481290
vt 0.956217 0.612518
vt 0.884407 0.482390
vt 0.756329 0.481290
vt 0.956217 0.495331
vt 0.755873 0.482390
s 0
usemtl Shape_blue
f 62/94/1 64/97/1 4/6/1 2/2/1
f 10/16/2 12/19/2 16/25/2 14/22/2
f 14/22/3 16/25/3 20/31/3 18/28/3
f 18/28/4 20/31/4 24/37/4 22/34/4
f 22/34/5 24/37/5 28/43/5 26/40/5
f 26/40/6 28/43/6 32/49/6 30/46/6
f 30/46/7 32/49/7 36/55/7 34/52/7
f 34/52/8 36/55/8 40/61/8 38/58/8
f 38/58/9 40/61/9 44/67/9 42/64/9
f 42/64/10 44/67/10 48/73/10 46/70/10
f 46/70/11 48/73/11 52/79/11 50/76/11
f 50/76/12 52/79/12 56/85/12 54/82/12
f 54/82/13 56/85/13 60/91/13 58/88/13
f 58/88/14 60/91/14 64/97/14 62/94/14
f 6/10/15 8/13/15 12/19/15 10/16/15
f 7/12/16 3/5/16 63/96/16 59/90/16 55/84/16 51/78/16 47/72/16 43/66/16 39/60/16 35/54/16 31/48/16 27/42/16 23/36/16 19/30/16 15/24/16 11/18/16
f 2/3/17 4/7/17 8/13/17 6/10/17
f 2/4/18 6/11/18 5/9/18 1/1/18
f 8/14/19 4/8/19 3/5/19 7/12/19
f 6/11/20 10/17/20 9/15/20 5/9/20
f 12/20/21 8/14/21 7/12/21 11/18/21
f 10/17/22 14/23/22 13/21/22 9/15/22
f 16/26/23 12/20/23 11/18/23 15/24/23
f 14/23/24 18/29/24 17/27/24 13/21/24
f 20/32/25 16/26/25 15/24/25 19/30/25
f 18/29/26 22/35/26 21/33/26 17/27/26
f 24/38/27 20/32/27 19/30/27 23/36/27
f 22/35/28 26/41/28 25/39/28 21/33/28
f 28/44/29 24/38/29 23/36/29 27/42/29
f 26/41/30 30/47/30 29/45/30 25/39/30
f 32/50/31 28/44/31 27/42/31 31/48/31
f 30/47/32 34/53/32 33/51/32 29/45/32
f 36/56/33 32/50/33 31/48/33 35/54/33
f 34/53/34 38/59/34 37/57/34 33/51/34
f 40/62/35 36/56/35 35/54/35 39/60/35
f 38/59/36 42/65/36 41/63/36 37/57/36
f 44/68/37 40/62/37 39/60/37 43/66/37
f 42/65/38 46/71/38 45/69/38 41/63/38
f 48/74/39 44/68/39 43/66/39 47/72/39
f 46/71/40 50/77/40 49/75/40 45/69/40
f 52/80/41 48/74/41 47/72/41 51/78/41
f 50/77/42 54/83/42 53/81/42 49/75/42
f 56/86/43 52/80/43 51/78/43 55/84/43
f 54/83/44 58/89/44 57/87/44 53/81/44
f 60/92/45 56/86/45 55/84/45 59/90/45
f 58/89/46 62/95/46 61/93/46 57/87/46
f 64/98/47 60/92/47 59/90/47 63/96/47
f 62/95/48 2/4/48 1/1/48 61/93/48
f 4/8/49 64/98/49 63/96/49 3/5/49
f 1/1/50 5/9/50 9/15/50 13/21/50 17/27/50 21/33/50 25/39/50 29/45/50 33/51/50 37/57/50 41/63/50 45/69/50 49/75/50 53/81/50 57/87/50 61/93/50
