# Blender 3.3.1
# www.blender.org
mtllib Trapazoid Test 01.mtl
o Cube
v -6.586068 -0.145200 -4.032867
v -6.604416 -0.126852 -4.000000
v -6.586068 0.145200 -4.032867
v -6.604416 0.126852 -4.000000
v -6.586068 -0.145200 -5.967133
v -6.604416 -0.126852 -6.000000
v -6.586068 0.145200 -5.967133
v -6.604416 0.126852 -6.000000
v -5.413932 -0.145200 -4.755540
v -5.395584 -0.126852 -4.745297
v -5.413932 0.145200 -4.755540
v -5.395584 0.126852 -4.745297
v -5.413932 -0.145200 -5.244460
v -5.395584 -0.126852 -5.254703
v -5.413932 0.145200 -5.244460
v -5.395584 0.126852 -5.254703
vn 0.5248 -0.0000 0.8512
vn 1.0000 -0.0000 -0.0000
vn -0.0000 1.0000 -0.0000
vn -1.0000 -0.0000 -0.0000
vn 0.5248 -0.0000 -0.8512
vn -0.7071 -0.7071 -0.0000
vn -0.7071 0.7071 -0.0000
vn 0.3711 -0.7071 -0.6019
vn 0.3711 0.7071 -0.6019
vn 0.7071 -0.7071 -0.0000
vn 0.7071 0.7071 -0.0000
vn 0.3711 -0.7071 0.6019
vn 0.3711 0.7071 0.6019
vn -0.0000 -1.0000 -0.0000
vt 0.245407 0.380230
vt 0.137767 0.545091
vt 0.247973 0.376316
vt 0.132741 0.530853
vt 0.137767 0.558262
vt 0.135435 0.534846
vt 0.245279 0.530853
vt 0.033932 0.545091
vt 0.311673 0.545091
vt 0.247973 0.534846
vt 0.132869 0.380230
vt 0.033932 0.558262
vt 0.311673 0.558262
vt 0.135435 0.376316
vt 0.139094 0.433964
vt 0.211496 0.545091
vt 0.136711 0.432482
vt 0.025355 0.477381
vt 0.211496 0.558262
vt 0.022971 0.478844
vt 0.137892 0.477381
vt 0.237944 0.545091
vt 0.135509 0.478844
vt 0.026557 0.433964
vt 0.237944 0.558262
vt 0.024174 0.432482
s 0
usemtl Shape_red
f 10/16/1 12/19/1 4/5/1 2/2/1
f 14/22/2 16/25/2 12/19/2 10/16/2
f 15/24/3 7/11/3 3/4/3 11/18/3
f 2/2/4 4/5/4 8/12/4 6/8/4
f 6/9/5 8/13/5 16/25/5 14/22/5
f 5/7/6 1/1/6 2/3/6 6/10/6
f 3/4/7 7/11/7 8/14/7 4/6/7
f 13/21/8 5/7/8 6/10/8 14/23/8
f 7/11/9 15/24/9 16/26/9 8/14/9
f 9/15/10 13/21/10 14/23/10 10/17/10
f 15/24/11 11/18/11 12/20/11 16/26/11
f 1/1/12 9/15/12 10/17/12 2/3/12
f 11/18/13 3/4/13 4/6/13 12/20/13
f 5/7/14 13/21/14 9/15/14 1/1/14
