# Blender 3.3.1
# www.blender.org
mtllib Triangle Test 01.mtl
o Triangle
v -6.799816 -0.160000 0.895817
v -6.849626 -0.153561 1.000000
v -6.799816 0.160000 0.895817
v -6.849626 0.153561 1.000000
v -6.799816 -0.160000 -0.895817
v -6.849626 -0.153561 -1.000000
v -6.799816 0.160000 -0.895817
v -6.849626 0.153561 -1.000000
v -5.413847 -0.160000 0.000000
v -5.302469 -0.153561 0.000000
v -5.413847 0.160000 0.000000
v -5.302469 0.153561 0.000000
vn 0.5428 -0.0000 0.8398
vn -0.0000 1.0000 -0.0000
vn -1.0000 -0.0000 -0.0000
vn 0.5428 -0.0000 -0.8398
vn -0.1282 -0.9917 -0.0000
vn -0.1282 0.9917 -0.0000
vn 0.0575 0.9944 -0.0889
vn 0.0575 -0.9944 0.0889
vn 0.0575 0.9944 0.0889
vn 0.0575 -0.9944 -0.0889
vn -0.0000 -1.0000 -0.0000
vt 0.462818 0.342571
vt 0.462818 0.672659
vt 0.380933 0.588946
vt 0.464521 0.338163
vt 0.464521 0.676601
vt 0.629313 0.586222
vt 0.545725 0.676601
vt 0.545725 0.338163
vt 0.632037 0.591992
vt 0.462818 0.418365
vt 0.462818 0.426715
vt 0.380933 0.513152
vt 0.464521 0.422773
vt 0.629313 0.510428
vt 0.545725 0.422773
vt 0.632037 0.507382
vt 0.462818 0.596865
vt 0.462818 0.502510
vt 0.456727 0.588946
vt 0.464521 0.591992
vt 0.464521 0.507382
vt 0.553519 0.510428
vt 0.545725 0.591992
vt 0.545725 0.507382
vt 0.547428 0.507382
s 0
usemtl Shape_green
f 10/20/1 12/23/1 4/7/1 2/5/1
f 11/22/2 7/14/2 3/6/2
f 2/4/3 4/8/3 8/15/3 6/13/3
f 6/13/4 8/15/4 12/24/4 10/21/4
f 5/10/5 1/1/5 2/4/5 6/13/5
f 3/6/6 7/14/6 8/16/6 4/9/6
f 7/14/7 11/22/7 12/25/7 8/16/7
f 1/2/8 9/17/8 10/20/8 2/5/8
f 11/22/9 3/6/9 4/9/9 12/25/9
f 9/18/10 5/11/10 6/13/10 10/21/10
f 5/12/11 9/19/11 1/3/11
