# Blender 3.3.1
# www.blender.org
mtllib Tunnel Test 01.mtl
o Tunnel
v -1.200000 -0.092455 4.000000
v -1.200000 0.474545 4.000000
v -1.200000 -0.092455 2.000000
v -1.200000 0.474545 2.000000
v -1.000000 -0.092455 4.000000
v -1.000000 0.474545 4.000000
v -1.000000 -0.092455 2.000000
v -1.000000 0.474545 2.000000
v -1.200000 0.275486 3.275487
v -1.200000 0.389597 3.000000
v -1.200000 0.275486 2.724514
v -1.200000 0.000000 3.389597
v -1.200000 -0.092455 3.351301
v -1.200000 0.000000 2.610404
v -1.200000 -0.092455 2.648700
v -1.000000 0.275486 3.275487
v -1.000000 0.389597 3.000000
v -1.000000 0.275486 2.724514
v -1.000000 -0.092455 3.351301
v -1.000000 0.000000 3.389597
v -1.000000 0.000000 2.610404
v -1.000000 -0.092455 2.648700
vn -1.0000 -0.0000 -0.0000
vn -0.0000 -0.0000 -1.0000
vn 1.0000 -0.0000 -0.0000
vn -0.0000 -0.0000 1.0000
vn -0.0000 -1.0000 -0.0000
vn -0.0000 1.0000 -0.0000
vn -0.0000 0.3827 0.9239
vn -0.0000 0.3827 -0.9239
vn -0.0000 -0.3827 -0.9239
vn -0.0000 -0.9239 -0.3827
vn -0.0000 -0.9239 0.3827
vn -0.0000 -0.3827 0.9239
vt 0.220097 0.571598
vt 0.010410 0.480590
vt 0.220097 0.465199
vt 0.010410 0.512021
vt 0.326496 0.571598
vt 0.010410 0.574884
vt 0.083547 0.498637
vt 0.326496 0.465199
vt 0.010410 0.543452
vt 0.193610 0.570047
vt 0.041842 0.480590
vt 0.193610 0.463649
vt 0.041842 0.512021
vt 0.041842 0.574884
vt 0.087212 0.570047
vt 0.083547 0.530068
vt 0.087212 0.463649
vt 0.041842 0.543452
vt 0.258641 0.502553
vt 0.041881 0.541002
vt 0.273296 0.481140
vt 0.041881 0.533337
vt 0.073352 0.498597
vt 0.287952 0.502553
vt 0.073352 0.490932
vt 0.252570 0.554248
vt 0.041881 0.556378
vt 0.254607 0.571598
vt 0.010410 0.470395
vt 0.041881 0.561539
vt 0.294023 0.554248
vt 0.073352 0.475555
vt 0.291985 0.571598
vt 0.073352 0.498637
vt 0.073352 0.470395
vt 0.155067 0.501003
vt 0.073312 0.541002
vt 0.140411 0.479590
vt 0.073313 0.533337
vt 0.104783 0.498597
vt 0.125755 0.501003
vt 0.104783 0.490932
vt 0.159100 0.570047
vt 0.041842 0.470395
vt 0.073312 0.561539
vt 0.161137 0.552698
vt 0.073313 0.556378
vt 0.119685 0.552698
vt 0.104783 0.475555
vt 0.121722 0.570047
vt 0.073352 0.530068
vt 0.104783 0.470395
s 0
usemtl Tunnel_text
f 12/26/1 13/28/1 1/1/1 2/3/1 4/8/1 3/5/1 15/33/1 14/31/1 11/24/1 10/21/1 9/19/1
f 3/6/2 4/9/2 8/18/2 7/14/2
f 7/15/3 8/17/3 6/12/3 5/10/3 19/43/3 20/46/3 16/36/3 17/38/3 18/41/3 21/48/3 22/50/3
f 5/11/4 6/13/4 2/4/4 1/2/4
f 5/11/5 1/2/5 13/29/5 19/44/5
f 15/34/5 3/7/5 7/16/5 22/51/5
f 8/18/6 4/9/6 2/4/6 6/13/6
f 22/52/7 21/49/7 14/32/7 15/35/7
f 12/27/8 20/47/8 19/45/8 13/30/8
f 9/20/9 16/37/9 20/47/9 12/27/9
f 10/22/10 17/39/10 16/37/10 9/20/10
f 10/23/11 11/25/11 18/42/11 17/40/11
f 11/25/12 14/32/12 21/49/12 18/42/12
